<svg xmlns="http://www.w3.org/2000/svg" xmlns:xlink="http://www.w3.org/1999/xlink" viewBox="0 0 32 32"><defs><path id="a" d="M0 0h30.689v32H0z"/></defs><g fill="none" fill-rule="evenodd" transform="translate(1)"><mask id="b" fill="#fff"><use xlink:href="#a"/></mask><path fill="#FF6900" d="M6.37 32a4.16 4.16 0 0 1-2.16-.48c-.48-.28-1.36-1-2.16-3.11A36.1 36.1 0 0 1 0 16.01V16c.03-4.88.78-9.02 2.05-12.41C2.85 1.48 3.73.76 4.21.48c.34-.2 1-.48 2.16-.48.44 0 .97.04 1.57.14a34.8 34.8 0 0 1 11.6 4.4h.02a35.2 35.2 0 0 1 9.55 8c1.41 1.76 1.58 2.9 1.58 3.46s-.17 1.7-1.58 3.45a35.2 35.2 0 0 1-9.55 8l-.01.01a34.7 34.7 0 0 1-11.6 4.4c-.62.1-1.14.14-1.58.14" mask="url(#b)"/></g></svg>